<svg id="svg" version="1.1" xmlns="http://www.w3.org/2000/svg" xmlns:xlink="http://www.w3.org/1999/xlink" viewBox="0, 0, 400,400"><g id="svgg"><path id="path0" d="M133.789 126.890 C 133.682 127.170,133.641 151.340,133.697 180.600 L 133.800 233.800 139.900 233.910 C 143.255 233.971,146.001 233.881,146.002 233.710 C 146.003 233.540,146.008 209.370,146.013 180.000 L 146.023 126.600 140.003 126.490 C 135.408 126.405,133.937 126.500,133.789 126.890 M242.800 155.579 C 233.367 156.572,226.003 160.958,223.550 167.042 L 222.600 169.400 222.600 201.600 L 222.600 233.800 228.800 233.800 L 235.000 233.800 235.200 203.400 C 235.343 181.732,235.532 172.713,235.860 172.000 C 237.438 168.567,242.685 166.442,249.657 166.414 C 252.569 166.402,253.158 166.290,253.393 165.700 C 253.826 164.613,256.037 155.903,255.911 155.780 C 255.590 155.464,245.379 155.308,242.800 155.579 M86.800 156.197 C 76.010 158.365,70.141 164.712,70.482 173.848 L 70.600 177.000 76.594 177.000 L 82.588 177.000 83.273 174.462 C 85.341 166.799,94.734 163.925,103.742 168.199 C 110.970 171.629,109.663 183.859,101.792 186.457 C 100.696 186.819,98.180 187.693,96.200 188.400 C 94.220 189.107,89.990 190.586,86.800 191.688 C 73.150 196.401,70.413 200.057,70.404 213.589 C 70.399 221.452,71.070 224.289,73.680 227.447 C 82.922 238.631,110.516 237.896,118.334 226.257 C 120.631 222.836,120.600 223.270,120.600 195.000 L 120.600 169.000 119.300 166.343 C 115.075 157.707,101.062 153.333,86.800 156.197 M278.600 156.197 C 268.207 158.591,263.258 163.413,262.259 172.118 C 261.682 177.145,261.478 176.978,268.300 177.043 C 274.842 177.106,274.510 177.236,275.137 174.376 C 276.498 168.156,282.952 165.140,291.280 166.830 C 297.647 168.123,300.000 170.841,300.000 176.902 C 300.000 182.249,298.528 184.532,294.000 186.208 C 293.010 186.575,291.840 187.032,291.400 187.225 C 290.960 187.418,286.640 188.929,281.800 190.582 C 264.669 196.436,262.215 199.350,262.245 213.800 C 262.269 225.803,266.095 231.391,276.004 233.897 C 280.529 235.041,281.915 235.200,287.347 235.200 C 300.847 235.200,309.134 230.963,311.991 222.600 C 312.676 220.598,313.087 176.694,312.469 171.586 C 311.554 164.015,306.767 158.972,298.200 156.553 C 294.937 155.632,282.068 155.398,278.600 156.197 M159.291 189.090 L 159.400 221.800 160.308 223.768 C 162.517 228.558,167.342 232.271,173.315 233.777 C 179.388 235.309,190.668 235.409,194.319 233.964 C 194.824 233.764,195.511 233.600,195.845 233.600 C 197.341 233.600,202.522 230.730,204.637 228.730 C 209.701 223.941,209.643 224.436,209.509 187.000 L 209.400 156.600 203.430 156.489 C 198.923 156.405,197.381 156.503,197.137 156.889 C 196.958 157.170,196.809 170.798,196.806 187.174 C 196.800 216.690,196.793 216.963,195.952 218.700 C 192.736 225.343,176.707 225.748,172.907 219.283 L 171.800 217.400 171.600 187.000 L 171.400 156.600 165.291 156.490 L 159.182 156.379 159.291 189.090 M107.772 217.172 C 106.179 222.690,101.444 224.848,92.834 223.980 C 86.743 223.366,84.161 221.134,83.177 215.628 C 81.927 208.631,85.123 204.773,94.800 201.600 C 96.230 201.131,97.760 200.591,98.200 200.400 C 98.640 200.209,100.170 199.657,101.600 199.173 C 104.886 198.061,107.524 196.839,107.905 196.254 C 108.570 195.231,108.445 214.840,107.772 217.172 M299.407 218.121 C 295.915 226.480,278.464 226.473,275.541 218.110 C 273.036 210.945,276.303 205.161,284.400 202.426 C 285.830 201.943,287.360 201.392,287.800 201.202 C 288.689 200.818,293.571 199.083,296.490 198.113 C 297.530 197.768,298.700 197.132,299.090 196.700 C 300.101 195.583,300.400 215.746,299.407 218.121 " stroke="none" fill="#464646" fill-rule="evenodd"></path></g></svg>