<svg id="svg" xmlns="http://www.w3.org/2000/svg" xmlns:xlink="http://www.w3.org/1999/xlink" viewBox="0, 0, 400,400"><g id="svgg"><path id="path0" d="M50.500 168.250 L 50.500 212.000 58.250 212.000 L 66.000 212.000 66.000 194.000 L 66.000 176.000 84.750 176.000 L 103.500 176.000 103.500 169.000 L 103.500 162.000 84.750 162.000 L 66.000 162.000 66.000 150.256 L 66.000 138.511 86.625 138.381 L 107.250 138.250 107.389 131.375 L 107.528 124.500 79.014 124.500 L 50.500 124.500 50.500 168.250 M187.000 141.750 L 187.000 150.000 182.250 150.000 L 177.500 150.000 177.500 156.000 L 177.500 162.000 182.250 162.000 L 187.000 162.000 187.000 177.725 C 187.000 194.401,187.261 197.032,189.338 201.250 C 192.985 208.657,198.799 211.492,211.125 211.875 L 219.000 212.119 219.000 206.114 L 219.000 200.108 213.375 199.918 C 201.902 199.532,201.798 199.338,201.599 178.125 L 201.449 162.000 210.240 162.000 L 219.032 162.000 218.891 156.125 L 218.750 150.250 210.125 150.113 L 201.500 149.976 201.500 141.738 L 201.500 133.500 194.250 133.500 L 187.000 133.500 187.000 141.750 M136.750 149.324 C 124.318 151.322,116.595 158.227,115.666 168.174 L 115.355 171.500 122.168 171.500 L 128.981 171.500 129.285 170.125 C 130.775 163.395,134.649 160.788,143.078 160.843 C 151.457 160.897,155.500 164.863,155.500 173.030 L 155.500 176.412 142.875 176.615 C 121.153 176.966,112.825 182.806,114.167 196.749 C 115.713 212.805,131.706 217.632,150.375 207.678 L 155.500 204.946 155.500 208.473 L 155.500 212.000 162.500 212.000 L 169.500 212.000 169.491 190.875 C 169.480 164.047,168.989 161.401,162.980 155.780 C 157.500 150.654,146.032 147.831,136.750 149.324 M250.500 149.523 C 240.592 150.652,233.032 155.545,229.486 163.123 C 225.652 171.317,225.866 193.776,229.849 201.093 C 240.261 220.224,279.502 215.561,281.370 194.971 L 281.639 192.000 274.883 192.000 L 268.128 192.000 267.791 194.108 C 267.037 198.824,262.242 201.500,254.547 201.500 C 245.230 201.500,240.500 197.145,240.500 188.567 L 240.500 185.500 261.000 185.500 L 281.500 185.500 281.500 177.591 C 281.500 157.595,270.116 147.288,250.500 149.523 M316.472 149.550 C 305.721 150.647,298.093 156.564,295.305 165.966 C 294.007 170.345,294.138 192.724,295.488 197.094 C 298.665 207.379,307.669 212.987,321.000 212.984 C 337.169 212.980,346.432 205.723,347.784 191.999 L 348.132 188.471 341.191 188.610 L 334.250 188.750 333.942 191.269 C 332.450 203.497,312.303 204.809,308.769 192.908 C 307.687 189.264,307.682 173.252,308.762 169.614 C 310.451 163.929,313.910 161.750,321.250 161.750 C 329.300 161.750,333.135 164.615,333.942 171.231 L 334.250 173.750 341.125 173.889 L 348.000 174.028 347.991 172.389 C 347.910 157.026,334.984 147.660,316.472 149.550 M261.812 162.386 C 265.752 164.431,267.844 167.922,268.345 173.287 L 268.645 176.500 254.505 176.500 L 240.366 176.500 240.607 173.121 C 241.035 167.143,244.013 163.230,249.497 161.439 C 251.948 160.639,259.577 161.225,261.812 162.386 M155.500 190.168 L 155.500 193.836 150.385 196.543 C 135.658 204.336,126.400 202.788,128.266 192.843 C 129.241 187.641,132.194 186.551,145.375 186.522 L 155.500 186.500 155.500 190.168 M50.000 239.250 C 50.000 248.602,50.040 249.000,50.981 249.000 C 51.869 249.000,51.975 248.589,52.106 244.625 L 52.250 240.250 56.625 240.106 C 60.589 239.975,61.000 239.869,61.000 238.981 C 61.000 238.079,60.637 238.000,56.477 238.000 L 51.954 238.000 52.102 234.625 L 52.250 231.250 57.125 231.107 C 61.006 230.993,62.000 230.815,62.000 230.232 C 62.000 229.630,60.934 229.500,56.000 229.500 L 50.000 229.500 50.000 239.250 M109.000 239.287 C 109.000 248.338,109.066 249.061,109.875 248.905 C 111.339 248.624,111.473 229.500,110.011 229.500 C 109.031 229.500,109.000 229.798,109.000 239.287 M124.500 233.222 L 124.500 236.944 122.199 235.926 C 117.066 233.655,114.750 235.573,114.750 242.096 C 114.750 248.584,117.406 250.599,122.520 247.990 L 124.500 246.980 124.500 248.027 C 124.500 248.754,124.767 249.022,125.375 248.905 C 126.839 248.624,126.973 229.500,125.511 229.500 C 124.587 229.500,124.500 229.820,124.500 233.222 M154.500 233.260 L 154.500 237.020 152.520 236.010 C 147.645 233.523,145.000 235.713,145.000 242.234 C 145.000 248.622,147.619 250.616,152.644 248.054 C 154.465 247.126,154.500 247.126,154.500 248.054 C 154.500 248.667,154.852 249.000,155.500 249.000 C 156.466 249.000,156.500 248.667,156.500 239.250 C 156.500 229.833,156.466 229.500,155.500 229.500 C 154.589 229.500,154.500 229.833,154.500 233.260 M192.500 233.260 L 192.500 237.020 190.520 236.010 C 185.376 233.386,183.000 235.378,183.000 242.314 C 183.000 248.636,185.696 250.645,190.632 247.999 L 192.500 246.998 192.500 247.999 C 192.500 248.667,192.833 249.000,193.500 249.000 C 194.466 249.000,194.500 248.667,194.500 239.250 C 194.500 229.833,194.466 229.500,193.500 229.500 C 192.589 229.500,192.500 229.833,192.500 233.260 M220.000 230.225 C 220.000 230.757,220.766 230.990,222.875 231.100 L 225.750 231.250 225.887 240.125 C 226.016 248.550,226.073 249.000,227.000 249.000 C 227.927 249.000,227.984 248.550,228.113 240.125 L 228.250 231.250 231.125 231.100 C 233.234 230.990,234.000 230.757,234.000 230.225 C 234.000 229.626,232.782 229.500,227.000 229.500 C 221.218 229.500,220.000 229.626,220.000 230.225 M294.500 239.250 C 294.500 248.667,294.534 249.000,295.500 249.000 C 296.466 249.000,296.500 248.667,296.500 239.250 C 296.500 229.833,296.466 229.500,295.500 229.500 C 294.534 229.500,294.500 229.833,294.500 239.250 M330.585 230.585 C 330.695 231.362,331.083 231.750,331.750 231.750 C 333.239 231.750,333.090 229.798,331.585 229.585 C 330.616 229.448,330.448 229.616,330.585 230.585 M66.428 235.758 C 64.682 236.707,63.610 239.500,64.992 239.500 C 65.509 239.500,66.065 239.084,66.226 238.576 C 66.910 236.421,70.467 235.922,72.273 237.727 C 74.356 239.810,73.939 240.999,71.125 241.003 C 67.909 241.007,65.119 241.844,64.506 242.989 C 63.009 245.786,64.687 249.000,67.644 249.000 C 68.549 249.000,70.171 248.550,71.250 248.000 C 72.329 247.450,73.276 247.000,73.356 247.000 C 73.435 247.000,73.500 247.450,73.500 248.000 C 73.500 248.667,73.833 249.000,74.500 249.000 C 75.661 249.000,75.974 241.977,74.974 238.376 C 74.123 235.312,69.728 233.965,66.428 235.758 M81.678 235.496 C 78.711 236.693,77.744 244.484,80.207 247.347 C 81.783 249.180,86.808 249.426,88.455 247.750 C 89.980 246.197,90.363 244.000,89.108 244.000 C 88.467 244.000,87.999 244.435,87.804 245.211 C 87.209 247.584,82.183 248.000,81.318 245.747 C 80.877 244.596,80.933 238.880,81.393 238.156 C 82.640 236.195,87.263 236.633,87.798 238.763 C 88.094 239.942,90.000 240.609,90.000 239.533 C 90.000 236.214,85.413 233.989,81.678 235.496 M93.583 241.045 C 93.801 248.947,95.571 250.712,100.581 248.027 C 102.381 247.062,102.400 247.062,102.652 248.027 C 102.792 248.562,103.265 249.000,103.703 249.000 C 104.394 249.000,104.500 248.072,104.500 242.000 C 104.500 235.333,104.452 235.000,103.500 235.000 C 102.567 235.000,102.500 235.333,102.500 239.959 L 102.500 244.918 100.816 245.959 C 96.665 248.524,95.500 247.306,95.500 240.400 C 95.500 235.261,95.450 235.000,94.458 235.000 C 93.451 235.000,93.422 235.199,93.583 241.045 M132.428 235.758 C 130.909 236.584,129.591 239.500,130.738 239.500 C 131.115 239.500,132.098 238.825,132.923 238.000 C 134.766 236.157,136.609 236.063,138.273 237.727 C 140.356 239.810,139.939 240.999,137.125 241.003 C 133.909 241.007,131.119 241.844,130.506 242.989 C 129.009 245.786,130.687 249.000,133.644 249.000 C 134.549 249.000,136.171 248.550,137.250 248.000 C 138.329 247.450,139.276 247.000,139.356 247.000 C 139.435 247.000,139.500 247.450,139.500 248.000 C 139.500 248.667,139.833 249.000,140.500 249.000 C 141.661 249.000,141.974 241.977,140.974 238.376 C 140.123 235.312,135.728 233.965,132.428 235.758 M162.200 236.700 C 160.384 238.516,159.712 244.093,161.015 246.528 C 163.120 250.461,171.500 249.407,171.500 245.209 C 171.500 244.171,170.117 244.343,169.774 245.424 C 168.612 249.085,162.000 247.188,162.000 243.193 C 162.000 243.107,164.191 242.972,166.869 242.893 C 172.356 242.732,172.477 242.630,171.504 239.015 C 170.389 234.872,165.295 233.605,162.200 236.700 M201.250 235.580 C 198.196 237.260,197.223 244.459,199.665 247.299 C 202.200 250.246,209.500 248.878,209.500 245.456 C 209.500 244.068,208.606 244.281,206.940 246.064 C 204.620 248.548,200.000 247.137,200.000 243.945 C 200.000 243.085,200.426 243.000,204.750 243.000 L 209.500 243.000 209.500 241.024 C 209.500 236.290,205.163 233.429,201.250 235.580 M237.694 235.463 C 233.629 237.209,233.105 246.236,236.954 248.226 C 240.250 249.931,245.500 248.414,245.500 245.757 C 245.500 244.142,244.333 244.121,243.603 245.723 C 242.221 248.757,236.530 247.476,236.508 244.125 C 236.500 243.041,236.664 243.000,241.016 243.000 C 246.050 243.000,246.354 242.793,245.783 239.748 C 245.102 236.119,241.102 234.000,237.694 235.463 M252.178 235.496 C 249.026 236.768,248.215 244.792,250.962 247.538 C 253.431 250.008,258.528 249.281,259.903 246.264 C 260.733 244.441,260.655 244.000,259.500 244.000 C 258.950 244.000,258.500 244.303,258.500 244.673 C 258.500 246.846,253.843 248.057,252.118 246.332 C 250.914 245.129,250.878 238.907,252.068 237.718 C 253.757 236.029,258.500 237.216,258.500 239.327 C 258.500 239.697,258.950 240.000,259.500 240.000 C 260.655 240.000,260.733 239.559,259.903 237.736 C 258.841 235.406,255.094 234.319,252.178 235.496 M264.000 242.000 C 264.000 248.667,264.048 249.000,265.000 249.000 C 265.932 249.000,266.000 248.667,266.000 244.092 L 266.000 239.184 267.943 238.092 C 272.084 235.765,272.917 236.641,273.106 243.523 C 273.230 248.025,273.370 248.761,274.125 248.906 C 275.722 249.212,275.407 237.862,273.773 236.227 C 272.281 234.736,270.602 234.673,267.980 236.010 L 266.000 237.020 266.000 236.010 C 266.000 235.333,265.670 235.000,265.000 235.000 C 264.048 235.000,264.000 235.333,264.000 242.000 M282.194 235.463 C 278.091 237.225,277.653 246.261,281.573 248.287 C 284.519 249.811,288.755 248.782,289.903 246.264 C 292.772 239.967,287.830 233.043,282.194 235.463 M302.650 235.949 C 298.897 238.308,299.353 247.018,303.309 248.522 C 308.447 250.476,311.750 247.944,311.750 242.052 C 311.750 235.890,307.394 232.969,302.650 235.949 M318.750 235.360 C 316.341 235.947,315.109 238.407,316.022 240.808 C 316.442 241.912,316.392 242.271,315.773 242.617 C 314.946 243.080,314.683 246.245,315.433 246.708 C 315.670 246.855,315.989 247.903,316.142 249.037 C 316.784 253.824,323.288 255.758,326.830 252.215 C 330.016 249.029,327.671 246.335,321.421 246.000 C 317.167 245.772,316.750 245.661,316.750 244.750 C 316.750 243.859,317.167 243.723,320.575 243.500 C 325.452 243.181,326.662 242.277,326.413 239.135 C 326.272 237.367,326.394 237.000,327.121 237.000 C 327.667 237.000,328.000 236.621,328.000 236.000 C 328.000 235.001,321.942 234.582,318.750 235.360 M330.718 235.653 C 329.993 237.544,330.759 248.739,331.625 248.906 C 332.425 249.059,332.500 248.469,332.500 242.037 C 332.500 236.051,332.386 235.000,331.734 235.000 C 331.313 235.000,330.856 235.294,330.718 235.653 M339.055 235.698 C 337.966 236.301,336.561 238.199,336.518 239.125 C 336.479 239.935,338.450 239.445,338.726 238.576 C 339.410 236.421,342.967 235.922,344.773 237.727 C 346.856 239.810,346.439 240.999,343.625 241.003 C 340.409 241.007,337.619 241.844,337.006 242.989 C 335.509 245.786,337.187 249.000,340.144 249.000 C 341.049 249.000,342.671 248.550,343.750 248.000 C 346.141 246.781,346.000 246.778,346.000 248.037 C 346.000 248.756,346.268 249.021,346.875 248.902 C 347.829 248.715,348.181 240.811,347.366 237.884 C 346.666 235.372,341.903 234.119,339.055 235.698 M169.125 238.108 C 171.084 240.353,170.377 241.000,165.966 241.000 C 162.014 241.000,161.940 240.977,162.278 239.875 C 163.283 236.595,166.974 235.643,169.125 238.108 M205.356 237.025 C 206.699 237.493,208.000 239.215,208.000 240.524 C 208.000 240.786,206.202 241.000,204.000 241.000 C 201.798 241.000,200.000 240.786,200.000 240.524 C 200.000 239.290,201.272 237.488,202.447 237.057 C 203.164 236.794,203.773 236.561,203.800 236.539 C 203.828 236.518,204.528 236.736,205.356 237.025 M243.125 238.077 C 245.029 240.327,244.367 241.000,240.250 241.000 C 236.649 241.000,236.500 240.953,236.500 239.827 C 236.500 236.833,241.054 235.629,243.125 238.077 M287.764 238.172 C 290.025 241.399,288.027 247.500,284.710 247.500 C 279.979 247.500,279.015 237.599,283.677 236.893 C 285.514 236.615,286.999 237.080,287.764 238.172 M309.511 238.520 C 311.067 241.427,309.686 246.594,307.185 247.222 C 303.015 248.268,300.093 242.059,303.010 238.351 C 304.611 236.316,308.384 236.414,309.511 238.520 M122.557 238.092 C 125.562 239.781,125.540 244.449,122.520 245.990 C 118.096 248.247,116.500 247.141,116.500 241.819 C 116.500 236.938,118.411 235.762,122.557 238.092 M152.816 238.041 C 156.741 240.467,154.490 246.992,149.725 246.998 C 147.419 247.001,147.000 246.233,147.000 242.000 C 147.000 236.805,148.816 235.569,152.816 238.041 M190.520 238.010 C 193.383 239.471,193.561 244.263,190.816 245.959 C 186.954 248.346,184.500 246.807,184.500 242.000 C 184.500 237.195,186.424 235.920,190.520 238.010 M324.706 238.610 C 325.412 240.624,323.992 242.000,321.208 242.000 C 318.059 242.000,316.267 239.433,318.121 237.579 C 319.390 236.310,324.163 237.057,324.706 238.610 M73.500 243.990 C 73.500 246.478,66.429 248.012,66.087 245.597 C 65.807 243.624,66.822 243.000,70.311 243.000 C 73.156 243.000,73.500 243.107,73.500 243.990 M139.500 243.990 C 139.500 246.478,132.429 248.012,132.087 245.597 C 131.807 243.624,132.822 243.000,136.311 243.000 C 139.156 243.000,139.500 243.107,139.500 243.990 M346.000 243.990 C 346.000 246.478,338.929 248.012,338.587 245.597 C 338.307 243.624,339.322 243.000,342.811 243.000 C 345.656 243.000,346.000 243.107,346.000 243.990 M325.033 248.018 C 327.147 249.149,325.965 251.809,323.250 252.029 C 319.476 252.335,318.000 251.474,318.000 248.964 C 318.000 247.371,322.655 246.745,325.033 248.018 " stroke="none" fill="#464646" fill-rule="evenodd"></path></g></svg>