<?xml version="1.0" standalone="no"?>
<!DOCTYPE svg PUBLIC "-//W3C//DTD SVG 20010904//EN"
 "http://www.w3.org/TR/2001/REC-SVG-20010904/DTD/svg10.dtd">
<svg version="1.0" xmlns="http://www.w3.org/2000/svg"
 width="500.000000pt" height="500.000000pt" viewBox="0 0 500.000000 500.000000"
 preserveAspectRatio="xMidYMid meet">

<g transform="translate(0.000000,500.000000) scale(0.100000,-0.100000)"
fill="#464646" stroke="none">
<path d="M1110 3478 c-1 -2 -10 -61 -20 -132 -17 -113 -18 -132 -5 -162 8 -19
25 -38 38 -43 26 -10 503 11 514 23 14 14 9 269 -5 294 -13 22 -14 22 -267 22
-140 0 -255 -1 -255 -2z"/>
<path d="M2343 3420 c-112 -16 -201 -89 -245 -199 -18 -47 -22 -75 -22 -181 0
-107 3 -133 23 -184 44 -111 128 -178 248 -196 78 -12 172 -1 226 26 48 25
107 85 132 134 42 84 56 217 34 335 -35 191 -191 295 -396 265z m186 -139 c20
-14 44 -47 60 -80 22 -48 25 -70 26 -151 0 -54 -6 -116 -14 -144 -30 -103
-134 -163 -238 -136 -67 16 -102 45 -132 109 -23 49 -26 69 -26 161 0 97 2
110 30 165 42 84 83 107 185 103 60 -2 82 -8 109 -27z"/>
<path d="M2880 3040 l0 -370 60 0 60 0 0 256 c0 164 4 254 10 252 5 -1 85
-115 178 -253 l168 -250 62 -3 62 -3 0 371 0 370 -65 0 -65 0 0 -262 0 -263
-175 263 -175 262 -60 0 -60 0 0 -370z"/>
<path d="M3632 3043 l3 -368 243 -3 242 -2 0 55 0 55 -175 0 -175 0 0 105 0
105 155 0 155 0 0 55 0 55 -155 0 -155 0 0 100 0 100 170 0 170 0 0 55 0 55
-240 0 -240 0 2 -367z"/>
<path d="M1340 3063 c-386 -14 -425 -18 -474 -47 -69 -40 -75 -54 -78 -186
l-3 -115 65 -3 c36 -1 149 -9 252 -17 146 -11 215 -12 315 -4 193 15 193 15
228 79 27 50 30 64 30 150 0 52 -3 107 -8 123 l-7 27 -118 -2 c-64 -1 -155 -3
-202 -5z"/>
<path d="M606 2609 c-50 -5 -93 -12 -98 -17 -4 -4 -18 -74 -31 -154 l-24 -147
41 -5 c69 -9 503 -26 656 -26 166 0 305 18 372 48 65 28 78 58 78 177 0 90 -1
96 -22 104 -63 23 -782 38 -972 20z"/>
<path d="M3000 2331 c0 -6 5 -13 10 -16 6 -4 10 -65 10 -151 0 -137 1 -144 20
-144 19 0 20 7 20 160 l0 160 -30 0 c-16 0 -30 -4 -30 -9z"/>
<path d="M2166 2305 c-35 -32 -46 -64 -46 -132 0 -104 44 -153 138 -153 58 0
97 25 118 76 32 76 3 198 -52 222 -14 7 -49 12 -78 12 -43 0 -58 -5 -80 -25z
m149 -29 c40 -41 46 -138 11 -192 -20 -29 -75 -41 -112 -22 -42 19 -55 53 -51
127 3 55 7 67 31 87 37 32 89 32 121 0z"/>
<path d="M3450 2176 c0 -148 1 -156 20 -156 18 0 20 8 22 118 l3 117 79 -117
c110 -165 116 -163 116 37 0 148 -1 155 -20 155 -18 0 -20 -8 -22 -116 l-3
-116 -76 114 c-52 78 -82 114 -97 116 -22 3 -22 2 -22 -152z"/>
<path d="M4223 2279 c-3 -19 -14 -34 -25 -36 -21 -6 -25 -33 -4 -33 10 0 15
-21 18 -81 4 -65 9 -85 23 -95 25 -19 65 -18 65 1 0 8 -4 15 -9 15 -27 0 -41
34 -41 96 0 62 1 64 25 64 32 0 34 27 3 32 -18 2 -24 11 -26 36 -4 41 -21 42
-29 1z"/>
<path d="M2618 2243 c-10 -2 -18 -13 -18 -23 0 -16 4 -17 32 -9 45 12 54 12
72 -7 30 -30 20 -44 -32 -44 -65 0 -92 -20 -92 -69 0 -24 7 -44 18 -54 24 -22
76 -22 107 -1 23 15 25 15 25 -1 0 -9 6 -15 13 -12 8 3 12 31 12 96 0 85 -2
94 -24 112 -22 18 -71 23 -113 12z m102 -133 c0 -30 -37 -62 -68 -58 -21 2
-28 9 -30 32 -4 35 10 46 61 46 30 0 37 -4 37 -20z"/>
<path d="M2841 2224 c-37 -30 -48 -80 -32 -135 16 -52 46 -71 108 -67 36 2 49
7 51 20 3 15 -2 17 -27 12 -17 -4 -41 -4 -54 0 -45 11 -62 95 -28 137 16 20
28 24 65 22 48 -2 59 9 27 27 -34 18 -78 11 -110 -16z"/>
<path d="M3139 2221 c-24 -25 -29 -37 -29 -81 0 -86 28 -119 102 -120 55 0 78
7 78 26 0 10 -10 12 -45 7 -51 -7 -95 15 -95 47 0 18 7 20 76 20 l77 0 -6 42
c-11 85 -99 118 -158 59z m101 -21 c36 -36 26 -50 -35 -50 -48 0 -55 3 -55 19
0 20 35 51 57 51 7 0 22 -9 33 -20z"/>
<path d="M3795 2238 c-30 -17 -43 -39 -50 -80 -8 -46 9 -103 38 -123 26 -18
118 -20 135 -3 22 22 12 28 -40 22 -55 -6 -76 4 -91 49 -6 15 2 17 73 17 74 0
80 2 80 20 0 81 -80 135 -145 98z m77 -30 c9 -7 18 -22 20 -33 3 -18 -3 -20
-49 -23 -47 -3 -53 -1 -53 17 0 20 34 51 55 51 6 0 18 -6 27 -12z"/>
<path d="M2440 2130 c0 -103 1 -110 20 -110 18 0 20 7 20 65 0 75 15 113 47
121 13 4 23 12 23 20 0 17 -41 18 -59 2 -11 -10 -14 -10 -18 0 -3 6 -11 12
-19 12 -11 0 -14 -22 -14 -110z"/>
<path d="M3970 2234 c0 -3 14 -25 30 -49 17 -24 30 -47 30 -51 0 -3 -16 -29
-35 -55 -41 -57 -41 -59 -16 -59 11 0 31 18 49 46 l30 46 31 -46 c20 -28 40
-46 51 -46 26 0 26 2 -15 59 -19 26 -35 52 -35 55 0 4 14 27 30 51 35 51 36
55 13 55 -10 0 -28 -16 -41 -35 -12 -19 -26 -35 -31 -35 -5 0 -19 16 -31 35
-13 20 -30 35 -41 35 -10 0 -19 -3 -19 -6z"/>
<path d="M2520 1795 c0 -30 -2 -55 -4 -55 -3 0 -17 5 -32 10 -68 26 -124 -24
-124 -112 0 -64 36 -108 89 -108 20 0 47 7 59 16 20 14 22 14 22 0 0 -9 7 -16
15 -16 13 0 15 24 15 160 0 153 -1 160 -20 160 -18 0 -20 -7 -20 -55z m-12
-87 c7 -6 12 -33 12 -61 0 -59 -20 -87 -61 -87 -59 0 -82 98 -34 146 26 25 52
26 83 2z"/>
<path d="M2130 1685 l0 -156 98 3 c78 2 97 6 97 18 0 12 -17 16 -77 18 l-78 3
0 49 0 50 70 0 c55 0 70 3 70 15 0 11 -16 15 -67 17 l-68 3 -3 47 -3 47 73 3
c60 2 73 6 76 21 3 15 -6 17 -92 17 l-96 0 0 -155z"/>
<path d="M3440 1820 c0 -15 7 -20 25 -20 18 0 25 5 25 20 0 15 -7 20 -25 20
-18 0 -25 -5 -25 -20z"/>
<path d="M3314 1785 c-3 -14 -15 -30 -25 -36 -25 -13 -24 -29 1 -29 18 0 20
-7 20 -83 0 -93 7 -107 57 -107 40 0 46 25 8 34 -24 6 -25 10 -25 81 0 68 2
75 20 75 11 0 20 7 20 15 0 8 -9 15 -20 15 -16 0 -20 7 -20 30 0 38 -27 41
-36 5z"/>
<path d="M2915 1746 c-60 -26 -76 -130 -29 -186 25 -29 30 -31 83 -28 43 2 57
7 59 20 3 15 -3 16 -46 11 -44 -5 -51 -3 -66 18 -9 13 -16 42 -16 65 0 55 25
78 80 72 32 -3 40 0 40 13 0 29 -56 37 -105 15z"/>
<path d="M3112 1753 c-21 -4 -40 -28 -30 -38 2 -2 19 0 39 4 45 10 79 -2 79
-29 0 -17 -6 -20 -44 -20 -58 0 -96 -29 -96 -74 0 -43 26 -66 75 -66 22 0 46
7 57 17 17 15 18 15 18 0 0 -10 7 -17 15 -17 24 0 21 170 -2 199 -18 22 -69
33 -111 24z m88 -136 c0 -54 -91 -80 -98 -29 -5 34 15 52 59 52 34 0 39 -3 39
-23z"/>
<path d="M3595 1747 c-60 -27 -76 -131 -29 -186 22 -26 33 -31 71 -31 24 0 53
5 64 10 54 29 64 139 17 186 -30 30 -83 39 -123 21z m96 -44 c22 -26 18 -112
-5 -129 -30 -21 -72 -18 -90 8 -21 30 -20 96 1 120 20 23 76 24 94 1z"/>
<path d="M3880 1753 c-8 -3 -22 -12 -31 -20 -14 -12 -17 -12 -22 2 -4 8 -11
15 -17 15 -6 0 -10 -41 -10 -110 0 -103 1 -110 20 -110 18 0 20 7 20 78 0 87
14 112 61 112 41 0 49 -18 49 -107 0 -78 1 -83 21 -83 20 0 21 4 17 95 -2 67
-7 99 -18 109 -17 18 -68 28 -90 19z"/>
<path d="M2620 1669 c0 -77 10 -115 34 -131 19 -13 81 -9 104 8 20 14 22 14
22 0 0 -9 7 -16 15 -16 12 0 15 19 15 110 0 103 -1 110 -20 110 -18 0 -20 -7
-20 -75 0 -83 -18 -115 -65 -115 -34 0 -45 27 -45 114 0 69 -2 76 -20 76 -18
0 -20 -7 -20 -81z"/>
<path d="M3430 1740 c0 -5 5 -10 10 -10 6 0 10 -40 10 -100 0 -93 1 -100 20
-100 19 0 20 7 20 110 l0 110 -30 0 c-16 0 -30 -4 -30 -10z"/>
</g>
</svg>
