<svg id="svg" version="1.1" xmlns="http://www.w3.org/2000/svg" xmlns:xlink="http://www.w3.org/1999/xlink" viewBox="0, 0, 400,400"><g id="svgg"><path id="path0" d="M20.578 114.913 C 20.470 115.195,20.437 141.160,20.505 172.613 L 20.628 229.800 21.538 232.956 C 25.012 245.008,34.221 254.010,46.223 257.088 C 50.568 258.202,114.181 258.176,119.000 257.058 C 126.677 255.277,133.598 250.656,138.521 244.025 L 140.136 241.850 140.768 242.807 C 145.079 249.335,152.650 254.759,160.400 256.873 L 163.800 257.800 197.400 257.800 C 237.631 257.800,238.010 257.746,247.022 250.680 C 257.085 242.790,259.593 235.873,259.597 215.999 L 259.600 202.998 230.499 173.899 C 214.493 157.895,201.214 144.800,200.990 144.800 C 200.765 144.800,199.148 146.242,197.396 148.004 L 194.210 151.208 222.105 179.105 L 250.000 207.002 250.000 217.617 C 250.000 233.529,247.875 238.842,239.261 244.466 C 233.221 248.409,235.575 248.184,198.929 248.311 C 160.314 248.445,159.960 248.401,153.304 242.579 C 148.410 238.297,146.138 233.740,144.982 225.887 L 144.759 224.375 140.080 224.487 L 135.400 224.600 135.168 227.000 C 134.218 236.822,126.995 245.063,117.081 247.638 C 113.106 248.670,54.053 248.811,49.126 247.799 C 40.099 245.946,32.737 238.677,30.613 229.520 C 30.072 227.187,30.009 220.592,30.098 175.531 L 30.200 124.200 54.000 124.200 L 77.800 124.200 78.000 174.200 L 78.200 224.200 82.568 224.314 C 85.793 224.399,87.021 224.294,87.261 223.914 C 87.441 223.631,87.591 201.035,87.594 173.700 L 87.600 124.000 111.400 124.000 L 135.200 124.000 135.200 119.200 L 135.200 114.400 77.987 114.400 C 31.834 114.400,20.737 114.499,20.578 114.913 M165.600 114.659 C 153.140 116.718,144.021 123.218,138.818 133.750 C 135.697 140.068,135.541 141.056,135.310 155.949 L 135.110 168.897 164.451 198.249 C 180.589 214.392,193.978 227.600,194.206 227.600 C 194.433 227.600,196.052 226.159,197.803 224.397 L 200.987 221.194 172.842 193.040 L 144.698 164.885 144.917 154.342 C 145.156 142.902,145.347 141.604,147.421 137.400 C 150.127 131.915,154.869 127.727,161.000 125.409 L 164.200 124.200 196.537 124.086 C 232.747 123.959,231.021 123.842,237.166 126.854 C 244.246 130.325,249.168 137.362,249.934 145.109 L 250.200 147.800 254.880 147.913 L 259.559 148.025 259.794 146.513 C 260.545 141.669,260.948 140.277,262.491 137.200 C 265.340 131.517,270.283 127.295,276.600 125.151 L 279.400 124.200 312.400 124.200 L 345.400 124.200 348.350 125.166 C 355.648 127.557,361.414 133.276,363.910 140.600 L 365.000 143.800 365.115 172.100 L 365.230 200.400 341.215 200.400 L 317.200 200.400 317.200 174.200 L 317.200 148.000 312.400 148.000 L 307.600 148.000 307.600 198.197 L 307.600 248.394 283.700 248.497 L 259.800 248.600 259.687 253.089 C 259.577 257.475,259.595 257.583,260.487 257.799 C 260.989 257.921,273.910 257.971,289.200 257.910 L 317.000 257.800 317.200 234.000 L 317.400 210.200 346.115 210.097 L 374.830 209.995 374.705 176.497 C 374.581 143.054,374.579 142.995,373.672 139.800 C 370.145 127.381,361.472 118.770,349.200 115.505 L 345.800 114.600 312.400 114.600 C 279.003 114.600,279.000 114.600,275.614 115.502 C 268.027 117.525,261.739 121.666,257.209 127.625 C 254.685 130.945,255.315 130.945,252.791 127.625 C 248.334 121.762,242.138 117.639,234.600 115.518 C 231.602 114.675,170.136 113.909,165.600 114.659 " stroke="none" fill="#464646" fill-rule="evenodd"></path></g></svg>